<?xml version="1.0" encoding="utf-8"?>
<!-- Generator: Adobe Illustrator 23.0.6, SVG Export Plug-In . SVG Version: 6.00 Build 0)  -->
<svg version="1.1" id="Layer_1" xmlns="http://www.w3.org/2000/svg" xmlns:xlink="http://www.w3.org/1999/xlink" x="0px" y="0px"
	 viewBox="0 0 641.1 534.5" style="enable-background:new 0 0 641.1 534.5;" xml:space="preserve">
<style type="text/css">
	.st0{fill:#B4F7FF;}
	.st1{fill:none;stroke:#000000;stroke-width:2;stroke-linecap:round;stroke-linejoin:round;}
	.st2{fill:#E49D75;}
	.st3{fill:none;stroke:#000000;stroke-width:3;stroke-linecap:round;stroke-linejoin:round;}
	.st4{fill:#5FC5D1;}
	.st5{fill:#FFC78E;}
	.st6{fill:#6BD5E1;}
	.st7{fill:#FFD98E;}
	.st8{fill:#FFB8B4;}
	.st9{fill:#D38D6A;}
	.st10{fill:#FFE4AD;}
	.st11{fill:#E6D4FF;}
</style>
<title>fashion-tshirts-colour</title>
<g>
	<g id="vector">
		<path class="st0" d="M591.3,346.4c-3.3-51.9-64.7-99.6-116.6-158.6c0.9,22.2-0.6,40.2-1.6,42c-4.1,7.4-80.3,15.6-101.4-3.6
			c-3.3-3-6.3-38.3,1.5-71.4c-5.7,2.1-12,3.8-17.6,3.8c-0.1,5.5,7,85.4,11.4,105.5c-2.8,5.1-31.9,9.9-51.5,9.9s-48.7-4.9-51.5-9.9
			c4.5-20.1,11.6-100.1,11.4-105.5c-14.7-0.2-34.3-11.5-34.3-11.5s8.2-22.9,14.1-38.3c-3.5-2.2-5.6-6-5.6-10.2
			c0.1-6.9,5.8-12.4,12.7-12.2c3.8,0,7.5,1.7,9.9,4.6c9.4-2.8,21.5-6.2,23.9-8.4c4.5,4.3,13.8,7.1,19.5,7.1s15-2.8,19.5-7.1
			c2.4,2.3,14.7,5.6,24.1,8.5c2.4-2.2,5.5-3.4,8.7-3.3c6.9-0.1,12.6,5.3,12.7,12.2c0,0,0,0,0,0c0,2.2-0.6,4.4-1.8,6.3
			c0.6,1,1.5,2.5,2.7,4.6c2.3-1.4,4.7-2.6,7.1-3.7c-0.5-1-0.7-2.1-0.8-3.3c0-6,3.7-18.8,6.4-28.5C369.8,39.8,346.3,11,317,2.7
			c-53.6-15.3-126.2,37.7-174.8,104.2c-23.5,32.2-41.3,67.5-51.3,102.6c7.2-2.2,14-4.4,15.7-6c4.5,4.3,13.8,7.1,19.5,7.1
			c5.7,0,15-2.8,19.5-7.1c3.9,3.6,32.7,9.9,35.1,12.8s19.9,51.8,19.9,51.8s-19.6,11.4-34.4,11.6c-0.1,5.5,7,85.4,11.4,105.5
			c-2.2,3.9-20.1,7.7-37.2,9.3c28.1,26.2,64,47.9,101.4,65.3c43.7,20.3,89.7,34.9,135.5,37.3v-4.9h17.8v5.3
			c21.1-0.3,42-3.6,62.1-9.8C528.3,465.5,595.1,403.4,591.3,346.4z"/>
		<path class="st1" d="M508.7,201.7L459.6,242c-0.8,0.6-0.9,1.7-0.2,2.5c0.3,0.4,0.8,0.6,1.4,0.6h98.1c1,0,1.8-0.8,1.8-1.7
			c0-0.5-0.2-1.1-0.6-1.4l-49-40.3C510.3,201.1,509.4,201.1,508.7,201.7z"/>
		<path class="st1" d="M494.4,186.1c-0.2-4.2,3.2-7.8,7.4-8c4.2-0.2,7.8,3.2,8,7.4c0,0.2,0,0.4,0,0.6"/>
		<line class="st1" x1="509.8" y1="201.3" x2="509.8" y2="186.1"/>
		<path class="st2" d="M348.8,170.1c2.1,2.1,23.5,14.7,27.6,15.7s20.6-33.5,20.6-33.5L369.6,136C363,139,345.8,154.5,348.8,170.1z"
			/>
		<path class="st1" d="M255.3,201.7l-49,40.3c-0.8,0.6-0.9,1.7-0.3,2.5c0.3,0.4,0.8,0.7,1.4,0.7h98.1c1,0,1.8-0.8,1.8-1.8
			c0-0.5-0.2-1-0.6-1.3l-49-40.3C256.9,201.1,255.9,201.1,255.3,201.7z"/>
		<path class="st1" d="M241,186.1c-0.2-4.2,3.2-7.8,7.4-8s7.8,3.2,8,7.4c0,0.2,0,0.4,0,0.6"/>
		<line class="st1" x1="256.4" y1="201.3" x2="256.4" y2="186.1"/>
		<polyline class="st3" points="45.6,504.7 45.6,182.2 595.6,182.2 595.6,504.7 		"/>
		<path d="M427.1,4c16.6,0,30,17.8,30,37.9c0,4.8-1.3,15.3-0.6,21.9c1.4,12.9,18.6,32.5,18.6,47.1c0,26.9-36.3,28.8-48.1,28.8
			S388,112.8,388,103.5s9-35.1,9-40.2S409.7,4,427.1,4z"/>
		<path class="st4" d="M374.5,229.2v263.5h23L427,366C427,366,430.1,215,374.5,229.2z"/>
		<path class="st5" d="M413,107.8c11,11-9.3,54.3-16.8,55.1c-5,0.6-35.1-23.4-35.1-30C361.1,122.3,398.3,93.3,413,107.8z"/>
		<path class="st6" d="M469.8,231.9v260.8h-25.4l-50.2-258.2C394.2,229.3,465,227,469.8,231.9z"/>
		<path class="st7" d="M430.5,95.9c52.4,0,45.7,129.1,42.8,134.2c-4.1,7.4-80.3,15.6-101.4-3.6C365.6,220.7,360.3,95.9,430.5,95.9z"
			/>
		<path class="st8" d="M315.3,273.7c19.7,0,48.7-4.9,51.5-9.9c-4.5-20.1-11.6-100.1-11.4-105.5c14.7-0.2,34.4-11.6,34.4-11.6
			S372.4,97.8,369.9,95s-31.3-9.1-35.1-12.8c-4.5,4.3-13.8,7.1-19.5,7.1s-15-2.8-19.5-7.1c-3.8,3.6-32.7,9.9-35.1,12.8
			s-19.9,51.7-19.9,51.7s19.6,11.4,34.4,11.6c0.1,5.5-7,85.4-11.4,105.5C266.6,268.9,295.6,273.7,315.3,273.7z"/>
		<path class="st1" d="M194.8,201.7l-49,40.3c-0.8,0.6-0.9,1.7-0.3,2.5c0.3,0.4,0.8,0.7,1.4,0.7H245c1,0,1.8-0.8,1.8-1.8
			c0-0.5-0.2-1-0.6-1.3l-49-40.3C196.5,201.1,195.5,201.1,194.8,201.7z"/>
		<path class="st1" d="M180.6,186.1c-0.2-4.2,3.2-7.8,7.4-7.9c4.2-0.2,7.8,3.1,8,7.4c0,0.2,0,0.4,0,0.6"/>
		<line class="st1" x1="195.9" y1="201.3" x2="195.9" y2="186.1"/>
		<path class="st1" d="M125.3,201.7l-49,40.3c-0.8,0.6-0.9,1.7-0.3,2.5c0.3,0.4,0.8,0.7,1.4,0.7h98.1c1,0,1.8-0.8,1.8-1.8
			c0-0.5-0.2-1-0.6-1.3l-49-40.3C126.9,201.2,126,201.1,125.3,201.7z"/>
		<path class="st1" d="M111.1,186.1c-0.2-4.2,3.2-7.8,7.4-8s7.8,3.2,8,7.4c0,0.2,0,0.4,0,0.6"/>
		<line class="st1" x1="126.4" y1="201.3" x2="126.4" y2="186.1"/>
		<polygon points="395.5,525.4 341,525.4 341,520.2 375.7,504.7 395.5,504.7 		"/>
		<polygon points="437,525.4 476.1,525.4 468.4,507.6 444,507.6 		"/>
		<rect x="376.1" y="492.7" class="st2" width="18.7" height="12"/>
		<rect x="446" y="492.7" class="st2" width="21.1" height="14.9"/>
		<path class="st9" d="M444.3,64.1c-3.5,5.4-6.4,33.9-4.9,45.1c-2.1,2.9-20.3,3.4-23.2,0.5c1.5-4.9,2.6-18.3,1.7-27
			C423.7,75,444.3,64.1,444.3,64.1z"/>
		<polyline class="st3" points="82.3,517 82.3,504.7 8.5,504.7 8.5,517 		"/>
		<polyline class="st3" points="632.5,517 632.5,504.7 558.7,504.7 558.7,517 		"/>
		<circle cx="8.5" cy="526" r="8.5"/>
		<circle cx="82.3" cy="526" r="8.5"/>
		<circle cx="558.7" cy="526" r="8.5"/>
		<circle cx="632.6" cy="526" r="8.5"/>
		<path class="st2" d="M423.6,144.7c-2.8,2.4-12.5,15.6-14.5,17.8c-2.1-3.6-28.9-55.4-31-57.3s-14.4,3.5-14.8,7s13.3,65.1,31.5,85.8
			c2.4,2.8,14.7,3.1,17.8,2.6s38.8-32.1,40.5-35.4S423.6,144.7,423.6,144.7z"/>
		<ellipse class="st2" cx="421.9" cy="49.6" rx="30.5" ry="38.1"/>
		<path d="M390.5,43.2C388,19.5,409.6,4,427.1,4C414.8,17.5,404.8,42.4,390.5,43.2z"/>
		<path d="M407.8,17.4c-1.9,3,9.7,33.9,32.4,33.9C480.8,50,428.7-15.1,407.8,17.4z"/>
		<circle class="st2" cx="446" cy="52.5" r="8.3"/>
		<ellipse class="st2" cx="368" cy="99.9" rx="12.7" ry="12.2"/>
		<path class="st10" d="M472.4,115c11,11-9.3,54.3-16.7,55.1c-5,0.6-35.1-23.4-35.1-30C420.5,129.4,457.7,100.4,472.4,115z"/>
		<ellipse class="st2" cx="262.5" cy="98.7" rx="12.7" ry="12.2"/>
		<path class="st11" d="M126.4,395.2c19.7,0,48.7-4.9,51.5-9.9c-4.5-20.1-11.6-100.1-11.4-105.5c14.8-0.2,34.4-11.6,34.4-11.6
			s-17.5-48.9-19.9-51.8s-31.3-9.1-35.1-12.8c-4.5,4.3-13.8,7.1-19.5,7.1s-15-2.9-19.5-7.1c-3.9,3.7-32.7,9.9-35.1,12.8
			S52,268.1,52,268.1s19.6,11.4,34.4,11.6c0.1,5.5-7,85.4-11.4,105.5C77.7,390.3,106.7,395.2,126.4,395.2z"/>
	</g>
</g>
</svg>
